<svg xmlns="http://www.w3.org/2000/svg" viewBox="0 0 120 120" fill="none"><path d="M85 25C78 18 67 16 59 20C51 24 47 33 48 42C49 51 55 59 64 62C56 59 48 54 44 46C40 38 41 28 47 21C53 14 63 12 72 15C76 17 79 20 82 24L85 25Z" fill="#00C9A7"/><circle cx="82" cy="18" r="2.5" fill="#00C9A7"/><circle cx="90" cy="28" r="1.5" fill="#00C9A7" opacity="0.7"/><circle cx="76" cy="12" r="1.2" fill="#00C9A7" opacity="0.5"/><path d="M24 58C24 54 27 50 31 50H89C93 50 96 54 96 58V78C96 82 93 85 89 85H31C27 85 24 82 24 78V58Z" fill="#00C9A7"/><rect x="30" y="56" width="60" height="18" rx="4" fill="#0a0e1a" opacity="0.5"/><rect x="33" y="58" width="54" height="14" rx="3" fill="#0a0e1a" opacity="0.3"/><rect x="30" y="56" width="16" height="18" rx="3" fill="#0a0e1a" opacity="0.4"/><rect x="52" y="56" width="16" height="18" rx="3" fill="#0a0e1a" opacity="0.4"/><rect x="74" y="56" width="16" height="18" rx="3" fill="#0a0e1a" opacity="0.4"/><rect x="32" y="58" width="5" height="6" rx="1" fill="rgba(255,255,255,0.15)"/><rect x="54" y="58" width="5" height="6" rx="1" fill="rgba(255,255,255,0.15)"/><rect x="76" y="58" width="5" height="6" rx="1" fill="rgba(255,255,255,0.15)"/><rect x="42" y="47" width="36" height="4" rx="2" fill="#00B89C"/><rect x="24" y="70" width="8" height="5" rx="2" fill="#FFD93D" opacity="0.9"/><rect x="88" y="70" width="8" height="5" rx="2" fill="#FF6B35" opacity="0.9"/><rect x="26" y="85" width="68" height="4" rx="2" fill="#00B89C"/><circle cx="38" cy="92" r="8" fill="#0a0e1a"/><circle cx="38" cy="92" r="5" fill="#1a2035"/><circle cx="38" cy="92" r="2" fill="#00C9A7"/><circle cx="82" cy="92" r="8" fill="#0a0e1a"/><circle cx="82" cy="92" r="5" fill="#1a2035"/><circle cx="82" cy="92" r="2" fill="#00C9A7"/><path d="M28 85C28 85 32 82 38 82C44 82 48 85 48 85" stroke="#00B89C" stroke-width="2" fill="none"/><path d="M72 85C72 85 76 82 82 82C88 82 92 85 92 85" stroke="#00B89C" stroke-width="2" fill="none"/><line x1="10" y1="65" x2="22" y2="65" stroke="#00C9A7" stroke-width="2" stroke-linecap="round" opacity="0.4"/><line x1="6" y1="72" x2="20" y2="72" stroke="#00C9A7" stroke-width="1.5" stroke-linecap="round" opacity="0.3"/><line x1="12" y1="79" x2="22" y2="79" stroke="#00C9A7" stroke-width="1.5" stroke-linecap="round" opacity="0.2"/></svg>